<?xml version="1.0" encoding="UTF-8" standalone="no"?>
<svg
   version="1.1"
   width="50.055733"
   height="109.19467"
   viewBox="0 0 50.055733 109.19467"
   xmlns="http://www.w3.org/2000/svg">
  <g
     transform="translate(-46.416,-131.48253)">
    <path
       d="m 0,0 h 13.449 v -15.317 c -1.336,0.249 -5.725,1.687 -9.45,5.413 C 0.209,-6.115 0.075,-1.377 0,0"
       style="fill:#ffffff;fill-opacity:1;fill-rule:nonzero;stroke:none"
       transform="matrix(1.3333333,0,0,-1.3333333,46.416,193.49613)" />
    <path
       d="m 0,0 v 13.951 c 0,0.808 -0.275,1.595 -0.799,2.209 -0.556,0.652 -1.468,1.359 -2.927,1.702 -3.089,0.727 -14.536,2.811 -18.447,9.813 -3.825,6.85 -0.825,12.636 0,14.086 1.548,2.72 5.365,6.901 11.541,7.996 V 35.938 c 0,-1.092 0.507,-2.134 1.394,-2.77 0.782,-0.561 1.997,-1.151 3.876,-1.585 C 0.545,30.22 13.903,26.403 13.449,14.772 12.987,2.956 0,0 0,0"
       style="fill:#ffffff;fill-opacity:1;fill-rule:nonzero;stroke:none"
       transform="matrix(1.3333333,0,0,-1.3333333,78.524133,213.91933)" />
    <path
       d="M 0,0 V 15.175 C 1.399,14.916 6.108,13.863 9.814,9.541 13.115,5.691 13.689,1.499 13.824,0 Z"
       style="fill:#ffffff;fill-opacity:1;fill-rule:nonzero;stroke:none"
       transform="matrix(1.3333333,0,0,-1.3333333,78.039733,167.81)" />
    <path
       d="M 0,0 C -0.088,0.204 -0.288,0.399 -0.595,0.578 -1.5,1.108 -3.228,1.436 -5.1,1.436 -7.013,1.436 -8.755,1.099 -9.646,0.553 -9.651,0.55 -9.658,0.546 -9.663,0.539 c -0.272,-0.163 -0.453,-0.346 -0.536,-0.541 -0.019,-0.04 -0.019,-0.165 -0.019,-0.416 v -9.108 c 0,-0.906 2.292,-1.642 5.118,-1.642 2.829,0 5.121,0.736 5.121,1.642 v 9.115 c 0,0.286 0,0.355 -0.021,0.411 m -5.1,-1.648 c -2.457,0 -4.455,0.634 -4.455,1.411 0,0.062 0.014,0.125 0.038,0.187 0.069,0.159 0.226,0.317 0.455,0.452 l 0.007,0.007 v 0.002 c 0.772,0.473 2.288,0.766 3.955,0.766 1.632,0 3.133,-0.284 3.92,-0.743 0.258,-0.151 0.425,-0.313 0.498,-0.482 0.027,-0.062 0.04,-0.124 0.04,-0.189 0,-0.777 -2,-1.411 -4.458,-1.411"
       style="fill:#ffffff;fill-opacity:1;fill-rule:nonzero;stroke:none"
       transform="matrix(1.3333333,0,0,-1.3333333,77.971333,133.3972)" />
    <path
       d="M 0,0 V -6.867 C 0,-6.901 0,-6.941 -0.011,-6.97 -0.025,-7.019 -0.076,-7.113 -0.132,-7.236 l -5.026,-10.332 -4.925,10.301 c -0.065,0.128 -0.105,0.201 -0.144,0.302 -0.007,0.032 -0.012,0.065 -0.012,0.098 v 6.855 c 1.294,-0.425 3.103,-0.69 5.102,-0.69 2.016,0 3.842,0.27 5.137,0.702"
       style="fill:#ffffff;fill-opacity:1;fill-rule:nonzero;stroke:none"
       transform="matrix(1.3333333,0,0,-1.3333333,78.2748,214.836)" />
    <path
       d="m 0,0 c -0.256,0 -0.465,0.208 -0.465,0.465 v 2.696 c 0,0.256 0.209,0.464 0.465,0.464 0.257,0 0.464,-0.208 0.464,-0.464 V 0.465 C 0.464,0.208 0.257,0 0,0"
       style="fill:#ffffff;fill-opacity:1;fill-rule:nonzero;stroke:none"
       transform="matrix(1.3333333,0,0,-1.3333333,71.4004,240.6772)" />
  </g>
</svg>